# xmcd
#
# Track frame offsets: 
#        150
#        17953
#        35668
#        52893
#        68689
#        88431
#        106881
#        122695
#        146449
#        162847
#        183559
#        205370
#        225291
#        240495
#        255703
#        273390
#        290779
#        309018
#        335647
#
# Disc length: 4795 seconds
#
# Revision: 5
# Processed by: cddbd v1.5.2PL0 Copyright (c) Steve Scherf et al.
# Submitted via: ExactAudioCopy v1.0b2
#
DISCID=1112b913
DTITLE=Liane Foly - Au fur et à mesure... (Best of)
DYEAR=2002
DGENRE=Chanson
TTITLE0=Au fur et à mesure
TTITLE1=Rêve orange
TTITLE2=Ça va, ça vient
TTITLE3=Chéri
TTITLE4=Doucement
TTITLE5=Laisse pleurer les nuages
TTITLE6=Va savoir
TTITLE7=Les Yeux doux
TTITLE8=C'est bon d'aimer
TTITLE9=Après toi
TTITLE10=La valse des anges
TTITLE11=De l'autre côté du temps
TTITLE12=Etre vrai
TTITLE13=Une place sur terre
TTITLE14=On a tous le droit
TTITLE15=La vie ne m'apprend rien
TTITLE16=Vivre  (inédit)
TTITLE17=A l'intérieur  (inédit)
TTITLE18=donnée
EXTD=YEAR: 2002 ID3G: 102
EXTT0=
EXTT1=
EXTT2=
EXTT3=
EXTT4=
EXTT5=
EXTT6=
EXTT7=
EXTT8=
EXTT9=
EXTT10=
EXTT11=
EXTT12=
EXTT13=
EXTT14=
EXTT15=
EXTT16=
EXTT17=
EXTT18=
PLAYORDER=
